HIERARCHY
ROOT Hips
{
	OFFSET 0.000000 0.000000 0.000000
	CHANNELS 6 Xposition Yposition Zposition Zrotation Yrotation Xrotation 
	JOINT LHipJoint
	{
		OFFSET 0.000000 0.000000 0.000000
		CHANNELS 3 Zrotation Yrotation Xrotation
		JOINT LeftUpLeg
		{
			OFFSET 1.363060 -1.794630 0.839290
			CHANNELS 3 Zrotation Yrotation Xrotation
			JOINT LeftLeg
			{
				OFFSET 2.448110 -6.726130 0.000000
				CHANNELS 3 Zrotation Yrotation Xrotation
				JOINT LeftFoot
				{
					OFFSET 2.562200 -7.039590 0.000000
					CHANNELS 3 Zrotation Yrotation Xrotation
					JOINT LeftToeBase
					{
						OFFSET 0.157640 -0.433110 2.322550
						CHANNELS 3 Zrotation Yrotation Xrotation
						End Site
						{
							OFFSET 0.000000 0.000000 0.000000
						}
					}
				}
			}
		}
	}
	JOINT RHipJoint
	{
		OFFSET 0.000000 0.000000 0.000000
		CHANNELS 3 Zrotation Yrotation Xrotation
		JOINT RightUpLeg
		{
			OFFSET -1.305520 -1.794630 0.839290
			CHANNELS 3 Zrotation Yrotation Xrotation
			JOINT RightLeg
			{
				OFFSET -2.542530 -6.985550 0.000000
				CHANNELS 3 Zrotation Yrotation Xrotation
				JOINT RightFoot
				{
					OFFSET -2.568260 -7.056230 0.000000
					CHANNELS 3 Zrotation Yrotation Xrotation
					JOINT RightToeBase
					{
						OFFSET -0.164730 -0.452590 2.363150
						CHANNELS 3 Zrotation Yrotation Xrotation
						End Site
						{
							OFFSET 0.000000 0.000000 0.000000
						}
					}
				}
			}
		}
	}
	JOINT LowerBack
	{
		OFFSET 0.000000 0.000000 0.000000
		CHANNELS 3 Zrotation Yrotation Xrotation
		JOINT Spine
		{
			OFFSET 0.028270 2.035590 -0.193380
			CHANNELS 3 Zrotation Yrotation Xrotation
			JOINT Spine1
			{
				OFFSET 0.056720 2.048850 -0.042750
				CHANNELS 3 Zrotation Yrotation Xrotation
				JOINT Neck
				{
					OFFSET 0.000000 0.000000 0.000000
					CHANNELS 3 Zrotation Yrotation Xrotation
					JOINT Neck1
					{
						OFFSET -0.054170 1.746240 0.172020
						CHANNELS 3 Zrotation Yrotation Xrotation
						JOINT Head
						{
							OFFSET 0.104070 1.761360 -0.123970
							CHANNELS 3 Zrotation Yrotation Xrotation
							End Site
							{
								OFFSET 0.000000 0.000000 0.000000
							}
						}
					}
				}
				JOINT LeftShoulder
				{
					OFFSET 0.000000 0.000000 0.000000
					CHANNELS 3 Zrotation Yrotation Xrotation
					JOINT LeftArm
					{
						OFFSET 3.362410 1.200890 -0.311210
						CHANNELS 3 Zrotation Yrotation Xrotation
						JOINT LeftForeArm
						{
							OFFSET 4.983000 -0.000000 -0.000000
							CHANNELS 3 Zrotation Yrotation Xrotation
							JOINT LeftHand
							{
								OFFSET 3.483560 -0.000000 -0.000000
								CHANNELS 3 Zrotation Yrotation Xrotation
								JOINT LeftFingerBase
								{
									OFFSET 0.000000 0.000000 0.000000
									CHANNELS 3 Zrotation Yrotation Xrotation
									JOINT LeftHandIndex1
									{
										OFFSET 0.715260 -0.000000 -0.000000
										CHANNELS 3 Zrotation Yrotation Xrotation
										End Site
										{
											OFFSET 0.000000 0.000000 0.000000
										}
									}
								}
								JOINT LThumb
								{
									OFFSET 0.000000 0.000000 0.000000
									CHANNELS 3 Zrotation Yrotation Xrotation
									End Site
									{
										OFFSET 0.000000 0.000000 0.000000
									}
								}
							}
						}
					}
				}
				JOINT RightShoulder
				{
					OFFSET 0.000000 0.000000 0.000000
					CHANNELS 3 Zrotation Yrotation Xrotation
					JOINT RightArm
					{
						OFFSET -3.136600 1.374050 -0.404650
						CHANNELS 3 Zrotation Yrotation Xrotation
						JOINT RightForeArm
						{
							OFFSET -5.241900 -0.000000 -0.000000
							CHANNELS 3 Zrotation Yrotation Xrotation
							JOINT RightHand
							{
								OFFSET -3.444170 -0.000000 -0.000000
								CHANNELS 3 Zrotation Yrotation Xrotation
								JOINT RightFingerBase
								{
									OFFSET 0.000000 0.000000 0.000000
									CHANNELS 3 Zrotation Yrotation Xrotation
									JOINT RightHandIndex1
									{
										OFFSET -0.622530 -0.000000 -0.000000
										CHANNELS 3 Zrotation Yrotation Xrotation
										End Site
										{
											OFFSET 0.000000 0.000000 0.000000
										}
									}
								}
								JOINT RThumb
								{
									OFFSET 0.000000 0.000000 0.000000
									CHANNELS 3 Zrotation Yrotation Xrotation
									End Site
									{
										OFFSET 0.000000 0.000000 0.000000
									}
								}
							}
						}
					}
				}
			}
		}
	}
}
MOTION
Frames: 8
Frame Time: 0.008333
4.827248 17.331543 0.767026 -175.134794 -75.759945 -176.946292 -12.004527 2.773047 0.638018 -5.113323 24.207732 -9.983406 -2.414813 -1.498461 -1.168723 1.245338 10.157785 -1.435124 1.114700 0.000000 -28.018000 8.341717 -3.073395 5.698193 6.131103 6.646794 -9.914856 3.081163 1.271006 1.638863 0.514431 3.704621 -1.537072 0.067401 -0.000000 -31.382700 3.794285 0.778524 -8.585395 0.047461 0.219051 -5.294726 -4.948084 0.286330 -4.339681 4.991709 0.043667 6.067373 -1.438148 -0.317055 3.803655 0.000000 0.000000 0.000000 13.995255 12.218906 -6.769782 -15.256226 -59.316093 -58.038855 175.342347 -55.762892 179.592856 25.999119 -14.899920 -3.818217 -0.449340 1.242942 0.000000 0.000000 0.000000 0.000000 0.000000 0.000000 0.000000 -5.440854 -2.815583 -8.499239 67.694125 57.044327 -11.693525 -174.442165 55.209409 179.647293 -16.775242 23.551813 -3.743153 -0.004841 -1.331012 -0.000000 0.000000 0.000000 0.000000 0.000000 0.000000 0.000000 
4.812102 17.333921 0.775351 -175.427374 -74.931707 -176.388701 -12.026780 2.792422 0.620791 -5.362776 24.627541 -10.294200 -2.447671 -1.519760 -1.179126 1.284145 10.434318 -1.498910 1.134600 0.000000 -27.892100 8.312461 -3.086927 5.860451 5.980329 7.025555 -10.416686 3.108672 1.275366 1.696133 0.589945 4.150360 -1.340112 0.124500 0.000000 -31.643500 3.973308 0.775845 -8.747314 0.095295 0.194334 -5.344436 -4.917045 0.259479 -4.399298 5.010617 0.089650 6.047162 -1.427187 -0.316474 3.801658 0.000000 0.000000 0.000000 14.339745 12.193087 -6.794558 -13.844321 -58.840427 -59.715252 175.381962 -56.177359 179.592395 26.222440 -14.960727 -3.865404 -0.452774 1.237793 0.000000 0.000000 0.000000 0.000000 0.000000 0.000000 0.000000 -5.357965 -2.667316 -8.503582 68.024904 57.294566 -11.298126 -174.443544 55.457967 179.645747 -16.859892 23.553003 -3.762066 -0.005554 -1.329199 0.000000 0.000000 0.000000 0.000000 0.000000 0.000000 0.000000 
4.798148 17.336285 0.783972 -175.685761 -74.092734 -175.848807 -12.049143 2.815489 0.601220 -5.629411 25.061674 -10.629762 -2.485636 -1.539178 -1.206274 1.319197 10.681058 -1.547314 1.154001 -0.000000 -27.778600 8.282966 -3.093292 6.019807 5.825108 7.400202 -10.930719 3.136965 1.284085 1.732640 0.665748 4.594365 -1.128699 0.183999 0.000000 -31.902900 4.144510 0.744134 -8.902222 0.144378 0.140257 -5.395026 -4.886021 0.203188 -4.470692 5.043599 0.141697 6.026761 -1.414212 -0.315812 3.800077 0.000000 0.000000 0.000000 14.693283 12.089363 -6.808462 -12.349655 -58.292842 -61.427245 175.435316 -56.718065 179.591977 26.439768 -15.022295 -3.911905 -0.454910 1.232092 0.000000 0.000000 0.000000 0.000000 0.000000 0.000000 0.000000 -5.258195 -2.501079 -8.500247 68.394961 57.563399 -10.872259 -174.448239 55.734152 179.644093 -16.956627 23.545527 -3.782374 -0.006051 -1.327166 0.000000 0.000000 0.000000 0.000000 0.000000 0.000000 0.000000 
4.785941 17.338584 0.792824 -175.915723 -73.249436 -175.327421 -12.071382 2.841654 0.577134 -5.910488 25.509167 -10.984278 -2.528523 -1.556052 -1.250924 1.349841 10.894025 -1.579244 1.172700 -0.000000 -27.678000 8.253637 -3.091253 6.173122 5.666500 7.769527 -11.451737 3.165517 1.296313 1.753781 0.740788 5.030815 -0.906952 0.245199 0.000000 -32.154500 4.303408 0.681298 -9.044436 0.193983 0.055135 -5.445490 -4.855153 0.115713 -4.554636 5.093866 0.199497 6.005398 -1.398852 -0.315039 3.798699 0.000000 0.000000 0.000000 15.058960 11.896136 -6.808646 -10.793389 -57.665072 -63.155497 175.505142 -57.401696 179.591612 26.644559 -15.100886 -3.960720 -0.455429 1.226281 0.000000 0.000000 0.000000 0.000000 0.000000 0.000000 0.000000 -5.139892 -2.315865 -8.487795 68.798959 57.849084 -10.423293 -174.456989 56.034622 179.642407 -17.059456 23.528447 -3.802479 -0.006416 -1.324946 0.000000 0.000000 0.000000 0.000000 0.000000 0.000000 0.000000 
4.775425 17.340783 0.801774 -176.117519 -72.408421 -174.817225 -12.092686 2.870777 0.551143 -6.208437 25.955851 -11.360366 -2.575491 -1.570887 -1.315870 1.377090 11.079841 -1.595269 1.191800 0.000000 -27.588900 8.224429 -3.080915 6.322336 5.503235 8.141841 -11.984200 3.193468 1.312081 1.761979 0.813139 5.446046 -0.678085 0.306400 -0.000000 -32.401900 4.443618 0.586427 -9.179230 0.243219 -0.061628 -5.496670 -4.823577 -0.003730 -4.650973 5.166369 0.264572 5.983309 -1.380462 -0.314120 3.797623 0.000000 0.000000 0.000000 15.470825 11.592230 -6.789323 -9.271072 -56.925789 -64.846575 175.592242 -58.232615 179.591173 26.841091 -15.224612 -4.019649 -0.454317 1.221120 0.000000 0.000000 0.000000 0.000000 0.000000 0.000000 0.000000 -5.002413 -2.109773 -8.464695 69.227424 58.144127 -9.964980 -174.470795 56.357467 179.640792 -17.159173 23.502375 -3.820378 -0.006821 -1.322612 0.000000 0.000000 0.000000 0.000000 0.000000 0.000000 0.000000 
4.767488 17.342935 0.811000 -176.290007 -71.575436 -174.337846 -12.113727 2.901389 0.514926 -6.509920 26.415211 -11.738511 -2.626293 -1.581572 -1.398254 1.398829 11.225737 -1.591695 1.210300 -0.000000 -27.513200 8.196407 -3.060147 6.457647 5.341729 8.503987 -12.505621 3.220928 1.329657 1.760687 0.883068 5.843076 -0.441676 0.368000 0.000000 -32.638501 4.564540 0.457483 -9.286039 0.292151 -0.211443 -5.544029 -4.791281 -0.156390 -4.758261 5.263875 0.332782 5.956066 -1.358823 -0.312959 3.795483 0.000000 0.000000 0.000000 15.891312 11.197490 -6.754207 -7.741744 -56.119394 -66.525785 175.700973 -59.271266 179.590625 27.029137 -15.397124 -4.089897 -0.451082 1.216426 0.000000 0.000000 0.000000 0.000000 0.000000 0.000000 0.000000 -4.841810 -1.886403 -8.431646 69.673350 58.454519 -9.500597 -174.489477 56.699740 179.639274 -17.253045 23.467322 -3.835475 -0.007327 -1.320146 0.000000 0.000000 0.000000 0.000000 0.000000 0.000000 0.000000 
4.762130 17.345054 0.820437 -176.431338 -70.757999 -173.887338 -12.133710 2.933114 0.470593 -6.814156 26.873732 -12.117954 -2.679634 -1.588434 -1.499362 1.416144 11.338844 -1.569438 1.229000 0.000000 -27.450600 8.169764 -3.029210 6.580067 5.182821 8.861576 -13.015174 3.247242 1.349135 1.748733 0.948943 6.209417 -0.198348 0.428300 0.000000 -32.872300 4.660997 0.294395 -9.368390 0.340258 -0.393902 -5.587560 -4.756526 -0.341973 -4.874751 5.391584 0.405081 5.923638 -1.333569 -0.311521 3.792215 0.000000 0.000000 0.000000 16.359069 10.700924 -6.699477 -6.329690 -55.226967 -68.136176 175.831083 -60.530512 179.589696 27.227740 -15.645243 -4.181462 -0.446024 1.212788 0.000000 0.000000 0.000000 0.000000 0.000000 0.000000 0.000000 -4.656295 -1.646788 -8.388930 70.125995 58.773949 -9.043232 -174.513424 57.059319 179.637940 -17.332183 23.426089 -3.846072 -0.008128 -1.317635 0.000000 0.000000 0.000000 0.000000 0.000000 0.000000 0.000000 
4.759743 17.347189 0.830225 -176.538295 -69.963694 -173.476760 -12.152566 2.964944 0.415701 -7.112462 27.330665 -12.488868 -2.734490 -1.590664 -1.617385 1.428652 11.417007 -1.527655 1.247800 0.000000 -27.402800 8.145218 -2.987541 6.685406 5.031281 9.208978 -13.499394 3.272337 1.370018 1.723791 1.010235 6.540697 0.053879 0.486500 -0.000001 -33.108901 4.731549 0.097023 -9.418604 0.387664 -0.608536 -5.624919 -4.717786 -0.559941 -4.998095 5.552420 0.479782 5.884526 -1.304549 -0.309752 3.787256 0.000000 0.000000 0.000000 16.882536 10.110680 -6.626353 -5.102143 -54.264394 -69.657207 175.983498 -62.046788 179.588104 27.460877 -15.975793 -4.300546 -0.439479 1.210150 0.000000 0.000000 0.000000 0.000000 0.000000 0.000000 0.000000 -4.444483 -1.395395 -8.338250 70.577250 59.101158 -8.599670 -174.542388 57.433690 179.636826 -17.390541 23.382197 -3.851471 -0.009385 -1.315146 0.000000 0.000000 0.000000 0.000000 0.000000 0.000000 0.000000 
